<?xml version="1.0" standalone="no"?><svg xmlns="http://www.w3.org/2000/svg" viewBox="0 0 1440 320"><path fill="#934738" fill-opacity="1" d="M0,288L13.3,293.3C26.7,299,53,309,80,293.3C106.7,277,133,235,160,197.3C186.7,160,213,128,240,112C266.7,96,293,96,320,117.3C346.7,139,373,181,400,202.7C426.7,224,453,224,480,213.3C506.7,203,533,181,560,192C586.7,203,613,245,640,245.3C666.7,245,693,203,720,192C746.7,181,773,203,800,192C826.7,181,853,139,880,112C906.7,85,933,75,960,106.7C986.7,139,1013,213,1040,213.3C1066.7,213,1093,139,1120,96C1146.7,53,1173,43,1200,42.7C1226.7,43,1253,53,1280,90.7C1306.7,128,1333,192,1360,208C1386.7,224,1413,192,1427,176L1440,160L1440,0L1426.7,0C1413.3,0,1387,0,1360,0C1333.3,0,1307,0,1280,0C1253.3,0,1227,0,1200,0C1173.3,0,1147,0,1120,0C1093.3,0,1067,0,1040,0C1013.3,0,987,0,960,0C933.3,0,907,0,880,0C853.3,0,827,0,800,0C773.3,0,747,0,720,0C693.3,0,667,0,640,0C613.3,0,587,0,560,0C533.3,0,507,0,480,0C453.3,0,427,0,400,0C373.3,0,347,0,320,0C293.3,0,267,0,240,0C213.3,0,187,0,160,0C133.3,0,107,0,80,0C53.3,0,27,0,13,0L0,0Z"></path></svg>