<?xml version="1.0" standalone="no"?><svg xmlns="http://www.w3.org/2000/svg" viewBox="0 0 1440 320"><path fill="#934738" fill-opacity="1" d="M0,64L26.7,58.7C53.3,53,107,43,160,37.3C213.3,32,267,32,320,74.7C373.3,117,427,203,480,202.7C533.3,203,587,117,640,74.7C693.3,32,747,32,800,69.3C853.3,107,907,181,960,202.7C1013.3,224,1067,192,1120,160C1173.3,128,1227,96,1280,122.7C1333.3,149,1387,235,1413,277.3L1440,320L1440,0L1413.3,0C1386.7,0,1333,0,1280,0C1226.7,0,1173,0,1120,0C1066.7,0,1013,0,960,0C906.7,0,853,0,800,0C746.7,0,693,0,640,0C586.7,0,533,0,480,0C426.7,0,373,0,320,0C266.7,0,213,0,160,0C106.7,0,53,0,27,0L0,0Z"></path></svg>